<svg xmlns="http://www.w3.org/2000/svg" width="210.7343cm" height="47.302cm" viewBox="0 0 5973.5703 1340.8428"><defs><style>.a{fill:#221f20;}</style></defs><path class="a" d="M480.3991,640.0049l-36.8951,56.449V743.51S501.9173,680.7744,480.3991,640.0049Z"/><path class="a" d="M196.2862,640.0049l36.8939,56.449V743.51S174.7627,680.7744,196.2862,640.0049Z"/><path class="a" d="M680.7714,685.7174c17.761,189.3821-80.6665,429.7577-338.9843,655.0747v.0507a.0391.0391,0,0,1-.0275-.03c-.01.02-.0164.0254-.03.03v-.0507C98.6489,1130.9261-1.3686,920.3874.0141,670.4214,58.0254,853.8824,91.0249,981.4865,341.73,1226.5691v.0514c.0136,0,.02-.01.03-.0307.0042.0205.0166.0307.0275.0307v-.0514c122.2516-132.9413,210.0347-213.6326,257.0119-351.364,18.1615-47.6809,6.9354-75.14,3.9657-102.9329-31.208,108.6777-117.5426,227.9855-260.98,374.3189v.0515c-.0109-.01-.02-.0158-.0247-.0309a.09.09,0,0,1-.0274.0309v-.0515C225.1705,1027.6736,153.7535,926.6069,114.3276,834.5872l-.01.0487c0-.0048-36.0488-81.2311-57.7356-171.0883-26.787-128.6458,6.0918-242.1368,18.2233-277.4407C114.14,275.8866,190.9106,156.2722,340.9764,0c0,0,178.9324,179.983,205.7522,300.7847,0,0-150.7477-149.4068-205.7522-181.86V119C210.9925,264.581,149.39,368.376,96.2935,488.6235c7.6063,41.8477,18.8351,94.0629,42.0625,152.4836,8.9861,98.3933,53.1677,138.6594,99.4727,189.465.5364,31.4741,10.7448,53.0834,10.8764,53.3249l1.4047-.0055c.0973-.1563,5.8407-9.6747,10.2509-25.3925,55.07,50.495,80.6185,46.75,80.6185,46.75,27.23-4.99,57.4022-26.5037,78.823-47.4889,3.6132,16.0718,8.9284,25.9728,9.0095,26.1374h.0081v-.0055c.1413-.2332,12.9874-21.4935,14.9806-53.2556,111.8238-103.3088,99.25-190.5981,99.25-190.5981,24.4592-66.6167,34.1106-100.9323,35.0475-152.897C578.0984,487.1408,644.2508,558.0907,680.7714,685.7174Z"/><path class="a" d="M1434.3547,821.1809q0,46.32-38.1706,68.1906-38.1768,21.8733-99.9287,21.8749H990.8929a224.2773,224.2773,0,0,1-50.1789-5.5771,148.4019,148.4019,0,0,1-43.7456-17.1558q-19.3014-11.577-30.88-27.8769-11.58-16.28-11.5808-38.5977h436.6014v-80.628H984.8887a213.3181,213.3181,0,0,1-49.3223-5.5767,132.4539,132.4539,0,0,1-41.6008-17.1559,93.6213,93.6213,0,0,1-28.7349-28.3057q-10.7351-16.7228-10.7228-39.8835V579.2954q0-25.7337,10.7228-44.6035a90.2,90.2,0,0,1,28.7349-30.88,127.0607,127.0607,0,0,1,41.6008-17.585,217.92,217.92,0,0,1,50.1786-5.5767h312.2264q61.7574,0,99.0706,21.0165,37.3134,21.03,37.3127,69.049h-433.17v79.7731h295.9282a271.8554,271.8554,0,0,1,50.6077,4.7156q24.8683,4.729,43.7456,15.0107a91.2743,91.2743,0,0,1,30.88,27.0207,63.8537,63.8537,0,0,1,12.0079,38.1692Z"/><path class="a" d="M1918.985,910.3884V741.4109H1629.0588v66.9038q0,31.7444-9.434,48.8938-9.448,17.1642-29.1641,29.1637-18.0119,11.1534-43.3167,17.5815a213.2976,213.2976,0,0,1-52.7508,6.4347h-8.58V575.0059q0-24.8709,10.2958-42.4592a86.1651,86.1651,0,0,1,28.3057-29.1637q18.0119-11.5822,41.6008-17.1558a214.0534,214.0534,0,0,1,49.3192-5.5767H2063.946V910.3884Zm0-339.6724H1629.0588v79.7731H1918.985Z"/><path class="a" d="M2605.1864,908.6724q-11.1586,0-27.4478-1.2871a215.0187,215.0187,0,0,1-35.17-6.0024,199.8346,199.8346,0,0,1-37.74-13.7239,136.402,136.402,0,0,1-35.17-24.4485L2316.1185,719.1071l-57.47-53.1781V908.6724H2115.4033V480.6505h29.1638q11.1381,0,28.306,1.2868a207.0469,207.0469,0,0,1,35.5984,6.0059,216.3731,216.3731,0,0,1,37.74,13.7238,134.1664,134.1664,0,0,1,35.5988,24.445L2434.49,670.2154q.8478.868,9.4375,8.58,8.5642,7.7187,22.3,20.5826,13.7122,12.8691,24.8742,22.3033V567.2875q0-45.4566,36.4564-66.0493,36.4479-20.5863,95.6387-20.5877h11.1538V908.6724Z"/><path class="a" d="M3262.2241,821.1809q0,23.16-9.8662,39.4557-9.8672,16.3065-27.877,27.4516-18.0124,11.1534-41.6012,16.7231a221.0344,221.0344,0,0,1-51.0348,5.5771H2685.8074V480.6505h446.0375q60.0265,0,95.21,23.1617,35.1613,23.16,35.17,66.9038ZM2831.6268,570.716V822.0389h288.21V570.716Z"/><path class="a" d="M3881.522,739.6949q-.8634,6.0108-19.7266,19.7263-18.88,13.7325-46.7484,32.5956-27.8839,18.88-61.3305,39.4561-33.45,20.5857-64.759,39.8883-31.3261,19.2993-57.0442,33.8793-25.7289,14.575-37.74,19.73-12.022-5.148-37.3113-19.73-25.3148-14.575-56.1861-33.8793-30.8764-19.2989-63.4719-39.8883-32.6079-20.586-59.6146-39.4561-27.0207-18.8542-45.0328-32.5956-18.0123-13.707-18.8717-19.7263V480.6505h12.8659q54.0414,0,93.4974,23.1617,36.8713,18.8747,36.8821,57.4694V707.0992q0,4.3,17.1558,18.0138Q3491.235,738.84,3514.4,753.8479q23.16,15.0144,45.8907,30.0218,22.7209,15.0142,33.8828,20.1554,11.1383-6.8538,35.17-21.0134,24.0023-14.1562,47.6032-30.0217,23.5833-15.862,41.6008-28.7349,18.0173-12.8692,18.0138-17.1559V560.4237q0-34.2981,39.4592-58.3275,37.7352-21.4289,93.4939-21.4457h12.0082Z"/><path class="a" d="M4060.7811,910.3884a181.8615,181.8615,0,0,1-48.89-6.4347,143.0709,143.0709,0,0,1-40.7428-18.0106,92.4271,92.4271,0,0,1-27.8769-27.877q-10.2959-16.2857-10.2958-36.8852v-340.53H4076.221V910.3884Z"/><path class="a" d="M4704.095,650.4891q0,45.4719-43.7456,68.1892-43.7461,22.7362-117.5136,22.7326H4328.3935a112.9825,112.9825,0,0,1,4.7188-30.4509,86.5136,86.5136,0,0,1,14.5818-29.5912q9.8513-12.8691,26.161-21.8745,16.2861-9.0036,38.6015-9.0052h147.535V570.716H4270.9237V810.0306q0,60.0469-36.8821,82.344a115.2917,115.2917,0,0,1-42.8879,14.5819,344.8216,344.8216,0,0,1-48.8935,3.4319h-14.5819V480.6505h445.18q58.3208,0,94.7808,23.1617,36.4477,23.16,36.4564,66.9038Z"/><path class="a" d="M5172.4257,741.4109h-273.628v80.628h433.1712q0,23.16-9.8666,39.8848a77.73,77.73,0,0,1-27.8769,27.4478q-18.0119,10.74-41.6008,15.869a239.315,239.315,0,0,1-51.0352,5.1479H4884.2155a185.1554,185.1554,0,0,1-49.748-6.4347,143.0752,143.0752,0,0,1-40.7429-18.0106,92.4316,92.4316,0,0,1-27.8769-27.877q-10.2953-16.2857-10.2954-36.8852V569.858a66.1141,66.1141,0,0,1,10.2954-36.0242,92.5107,92.5107,0,0,1,27.8769-27.8768,152.2636,152.2636,0,0,1,40.7429-18.443,171.4418,171.4418,0,0,1,48.89-6.8635h318.2316q59.1842,0,94.7811,23.1617,35.5845,23.16,35.5984,66.9038H4898.7977v79.7731h273.628Z"/><path class="a" d="M5799.4452,911.2464,5594.44,650.4891h223.0155V570.716H5526.6748V808.3147q0,60.9154-36.8821,82.3439a115.3118,115.3118,0,0,1-42.8876,14.5819,344.3147,344.3147,0,0,1-48.8939,3.4319h-14.5818V480.6505h446.0375q60.0265,0,95.21,23.1617,35.1609,23.16,35.1692,66.9038v81.4891q0,41.1721-32.1665,64.3285-32.1686,23.16-91.3522,25.7352L5973.57,911.2464Z"/></svg>